# xmcd
#
# Track frame offsets: 
#        150
#        14399
#        35571
#        53696
#        68890
#        89707
#        105589
#        123731
#        141318
#        156578
#        177795
#        190082
#
# Disc length: 2820 seconds
#
# Revision: 0
# Processed by: cddbd v1.5.2PL0 Copyright (c) Steve Scherf et al.
# Submitted via: ExactAudioCopy v0.95b4
#
DISCID=ac0b020c
DTITLE=The Big Dawgs - Tonight ... Blues!
DYEAR=1999
DGENRE=Blues
TTITLE0=The devil made me do it
TTITLE1=Truth is, I've been known to lie
TTITLE2=Me and my guitar
TTITLE3=Hometown homesick blues
TTITLE4=Same old blues
TTITLE5=I can't get a handle on love
TTITLE6=Good goodbye
TTITLE7=Low profile
TTITLE8=Cruise control
TTITLE9=Home of the blues
TTITLE10=Subject to change
TTITLE11=I didn't mean to be so nice
EXTD=
EXTT0=
EXTT1=
EXTT2=
EXTT3=
EXTT4=
EXTT5=
EXTT6=
EXTT7=
EXTT8=
EXTT9=
EXTT10=
EXTT11=
PLAYORDER=
